<svg width="130" height="36" viewBox="0 0 130 36" fill="none" xmlns="http://www.w3.org/2000/svg">
<path d="M9.89687 24.5645C12.1519 24.5645 13.2772 23.9612 13.2772 22.677C13.2772 21.6586 11.4257 20.8283 7.76396 20.223C3.05542 19.4295 0.639 17.4683 0.599744 14.3354C0.599744 10.0327 4.2222 7.99385 9.09212 7.92023C11.8291 7.92023 14.0035 8.48669 15.613 9.61758C17.1832 10.7873 18.0272 12.4111 18.1493 14.4867H14.769C13.5215 14.4499 12.7168 14.0348 12.394 13.2413C12.032 12.3742 10.9459 11.8834 9.17499 11.8834C7.08134 11.8834 6.0367 12.4111 6.0367 13.4315C6.0367 14.4499 7.40411 15.2434 10.1826 15.7342C13.805 16.4131 16.18 17.2823 17.3468 18.3007C18.3522 19.2823 18.8363 20.4888 18.8363 21.8487C18.8363 26.7547 14.7319 28.5666 9.09648 28.5666C6.11739 28.5666 3.86453 27.9633 2.41424 26.7936C0.804749 25.6606 0 23.9244 0 21.6238H5.46966C5.58961 23.8099 7.28198 24.5645 9.89687 24.5645Z" fill="black"/>
<path d="M28.5325 33.5092C28.5325 35.1697 27.6471 36 25.8762 36H23.1785V16.9039C23.4598 10.9407 26.7617 7.99792 33.1604 7.99792C39.7619 7.99792 43.0616 11.3578 43.0616 18.0756C43.0616 24.8691 40.2439 28.3783 34.5692 28.5685C31.9129 28.5685 29.9 27.5501 28.5325 25.4744V33.5092ZM33.0797 24.0736C35.9781 24.0736 37.4676 22.1493 37.5876 18.2985C37.5876 14.2597 36.0588 12.2597 32.999 12.2597C29.9392 12.2597 28.4911 14.2597 28.5304 18.2985C28.6939 22.1493 30.1813 24.0736 33.0797 24.0736Z" fill="black"/>
<path d="M52.9237 4.97736V28.1882H47.5696V2.52335H50.3458C51.7569 2.52335 52.9237 3.65628 52.9237 4.97736Z" fill="black"/>
<path d="M61.5359 2.52335C63.3068 2.52335 64.153 3.35362 64.1115 4.97736V6.44976H58.7574V2.52335H61.5359ZM61.5359 8.22279C63.2675 8.22279 64.1115 9.01625 64.1115 10.6379V28.1882H58.7574V8.22279H61.5359Z" fill="black"/>
<path d="M84.5573 28.1882C82.7864 28.0757 81.901 27.2823 81.901 25.6974V15.4315C81.781 13.3558 80.5728 12.3374 78.1978 12.3374C75.8229 12.3374 74.6146 13.3558 74.5754 15.4315V28.1882H69.1406V16.4499C69.1406 10.7505 72.2004 7.92023 78.2764 7.92023C84.3545 7.92023 87.3336 10.7505 87.2921 16.4499V28.1882H84.5573Z" fill="black"/>
<path d="M97.6383 11.8077H97.0756V22.865C97.0756 23.6953 97.599 24.1472 98.6458 24.1472H100.297V27.9591C98.5651 28.1104 96.6743 28.1104 94.6613 27.9202C92.6484 27.7301 91.6823 26.5624 91.7237 24.3354V2.52335H94.5C95.9088 2.52335 97.0756 3.73194 97.0756 5.05302V8.22277H100.295V9.31685C100.295 10.7504 99.1278 11.8077 97.6383 11.8077Z" fill="black"/>
<path d="M104.563 17.8833C104.724 11.4293 108.386 8.2207 115.511 8.2207H116.276V13.4293H114.464C111.485 13.4293 109.995 14.9017 109.995 17.8077V28.1861H104.563V17.8833Z" fill="black"/>
<path d="M124.196 2.53494L124.219 2.5578L124.22 2.55871L126.528 4.72247V3.19221L125.036 1.79358H125.035C125.024 1.78352 125.014 1.77438 125.002 1.76616C124.828 1.60801 124.641 1.47089 124.446 1.35571C124.24 1.23504 124.019 1.13632 123.789 1.06136C122.621 0.677419 121.266 0.921493 120.336 1.79358L120.335 1.79449C120.323 1.80546 120.314 1.81643 120.304 1.8274C119.679 2.4289 119.366 3.21323 119.366 3.99665C119.366 4.79195 119.689 5.58999 120.334 6.19606L120.335 6.19697L120.334 6.19789L120.336 6.19972L121.019 6.83961C121.244 7.05078 121.61 7.05078 121.835 6.83961C122.061 6.62845 122.061 6.28656 121.835 6.07539L121.153 5.43458L121.15 5.43276L121.149 5.43367C120.73 5.03876 120.519 4.51771 120.519 3.99573C120.519 3.48382 120.721 2.97282 121.125 2.58065L121.151 2.5578L121.152 2.55688C121.759 1.98646 122.647 1.8274 123.41 2.07788C123.555 2.12541 123.699 2.1894 123.838 2.27076C123.966 2.34663 124.086 2.43439 124.196 2.53494Z" fill="black"/>
<path d="M126.528 10.7697L126.109 11.1619C126.088 10.8867 126.029 10.6152 125.931 10.3528C125.851 10.1371 125.746 9.93047 125.617 9.73666C125.495 9.552 125.349 9.37739 125.18 9.21466C125.172 9.20461 125.162 9.19364 125.151 9.18449L125.15 9.18358L124.635 8.70089C124.41 8.48972 124.045 8.48972 123.819 8.70089C123.594 8.91207 123.594 9.25397 123.819 9.46606L124.334 9.94875L124.335 9.94967L124.359 9.97161C124.466 10.0749 124.559 10.1874 124.639 10.3071C124.726 10.4369 124.795 10.5713 124.846 10.7075C125.105 11.4032 124.952 12.2077 124.388 12.7763L124.336 12.8248H124.335L124.214 12.9381C123.99 13.1493 123.99 13.4921 124.214 13.7024C124.44 13.9136 124.806 13.9136 125.03 13.7024L125.037 13.6969L126.529 12.2982V10.7697H126.528Z" fill="black"/>
<path d="M126.753 4.99542L126.11 4.39391C126.055 5.11518 125.735 5.82091 125.149 6.3694L121.152 10.1174L121.151 10.1184L121.15 10.1174C120.731 10.5133 120.52 11.0343 120.52 11.5563C120.52 12.0783 120.73 12.5994 121.15 12.9943L121.151 12.9934L121.153 12.9952H121.154L121.155 12.9961L121.154 12.997C121.271 13.1067 121.4 13.2009 121.536 13.2804C121.675 13.3609 121.819 13.4267 121.963 13.4742C122.727 13.7247 123.614 13.5647 124.222 12.9952L128.248 9.21882L128.249 9.21974C128.277 9.19323 128.301 9.16855 128.321 9.14752C128.426 9.03599 128.515 8.9135 128.591 8.78277C128.668 8.6493 128.727 8.51401 128.768 8.38054C128.98 7.68853 128.798 6.90967 128.22 6.36757L126.753 4.99542ZM124.374 2.76489L124.335 2.72832L124.334 2.72923L124.333 2.72832L124.212 2.61496L125.021 1.84525L125.027 1.84982H125.028L125.035 1.8553L127.567 4.23028L128.553 5.15357H128.55L129.032 5.607C129.914 6.43431 130.193 7.62179 129.87 8.67673C129.802 8.8943 129.714 9.10181 129.602 9.29378C129.489 9.49033 129.35 9.67956 129.184 9.8569C129.143 9.90078 129.104 9.94101 129.066 9.97666L129.062 9.98306L125.035 13.7594C124.105 14.6306 122.75 14.8747 121.582 14.4917C121.353 14.4158 121.132 14.318 120.925 14.1973C120.718 14.0757 120.521 13.9304 120.339 13.7594H120.337L120.336 13.7585L120.334 13.7567V13.7549C119.689 13.1497 119.366 12.3525 119.366 11.5563C119.366 10.7592 119.689 9.96203 120.335 9.35595V9.35412L120.336 9.3532L124.334 5.60517C124.804 5.16454 125.012 4.56486 124.958 3.98437C124.946 3.86553 124.927 3.75309 124.898 3.64887C124.81 3.32618 124.633 3.02085 124.374 2.76489Z" fill="black"/>
</svg>
